<?xml version="1.0" encoding="utf-8"?>
<!-- Generator: Adobe Illustrator 24.3.0, SVG Export Plug-In . SVG Version: 6.00 Build 0)  -->
<svg version="1.1" id="Layer_1" xmlns="http://www.w3.org/2000/svg" xmlns:xlink="http://www.w3.org/1999/xlink" x="0px" y="0px"
	 viewBox="0 0 144 100.8" style="enable-background:new 0 0 144 100.8;" xml:space="preserve">
<style type="text/css">
	.st0{fill-rule:evenodd;clip-rule:evenodd;fill:#E60013;}
	.st1{fill-rule:evenodd;clip-rule:evenodd;fill:#FFFFFF;}
	.st2{fill-rule:evenodd;clip-rule:evenodd;}
</style>
<g>
	<g>
		<path class="st0" d="M70.12,24.29c0.55-0.99,1.71-0.99,2.22-0.01l12.21,27.06c0.31,0.89,0.37,0.86,0.03,1.71L72.37,80.19
			c-0.48,1.09-1.76,1.06-2.25,0.01L57.89,53.03c-0.46-0.84-0.46-0.86,0-1.69L70.12,24.29z"/>
		<path class="st1" d="M70.24,27.04c0.49-0.89,1.28-0.89,2-0.01l11,24.39c0.29,0.81,0.34,0.77,0.03,1.54L72.25,77.44
			c-0.43,0.98-1.59,0.95-2.02,0.01L59.2,52.95c-0.41-0.76-0.41-0.77,0-1.53L70.24,27.04z"/>
		<path class="st0" d="M70.26,29.08c0.4-0.89,1.3-1.15,1.86-0.02L82.3,51.64c0.26,0.73,0.31,0.69,0.02,1.42L72.14,75.71
			c-0.4,0.91-1.47,0.88-1.88,0.02L60.05,53.05c-0.38-0.71-0.38-0.72,0-1.4L70.26,29.08z"/>
		<rect x="62.9" y="49.04" class="st1" width="16.59" height="0.4"/>
		<rect x="62.9" y="55.12" class="st1" width="16.59" height="0.4"/>
		<polygon class="st1" points="66.86,63.29 75.52,63.29 71.18,73.38 		"/>
		<rect x="67.14" y="64.04" class="st0" width="8.41" height="0.96"/>
		<rect x="67.98" y="65.83" class="st0" width="6.61" height="0.97"/>
		<rect x="68.65" y="67.44" class="st0" width="5.17" height="0.96"/>
		<rect x="69.09" y="68.92" class="st0" width="4.21" height="0.72"/>
		<rect x="70.99" y="55.2" class="st1" width="0.39" height="8.42"/>
		<path class="st1" d="M71.19,39.89c0.06-0.21,0-0.45-0.05-0.63c-0.07,0.04-0.15,0.08-0.24,0.1c-0.14,0.05-0.32,0.08-0.48,0.08
			c-0.27,0-0.53-0.07-0.69-0.21c-0.11-0.1-0.19-0.24-0.23-0.38c-0.01-0.08-0.02-0.15-0.01-0.23c0.01-0.09,0.05-0.16,0.11-0.23
			c0.06-0.08,0.15-0.13,0.27-0.16c0.02-0.01,0.03-0.01,0.04-0.01l0,0c0.22-0.06,0.73-0.2,1.25,0.3c0.03-0.05,0.04-0.11,0.06-0.16
			c0.07-0.18,0.1-0.39-0.07-0.45L71,37.84v-0.14v-5.51h0.4v5.38c0.35,0.2,0.31,0.58,0.19,0.91c-0.06,0.15-0.12,0.3-0.17,0.38l0,0
			l-0.01-0.01v0.01c0.11,0.23,0.38,0.96,0.03,1.44c0.11,0.27,0.23,0.63,0.07,1.05c0.43,0.27,0.39,0.65,0.24,1.03
			c-0.08,0.16-0.17,0.33-0.26,0.46v6.41h-0.4v-6.47v-0.06l0.04-0.05l0.02-0.04c0.08-0.13,0.16-0.28,0.23-0.42
			c0.08-0.19,0.1-0.38-0.09-0.53c-0.12,0.09-0.26,0.14-0.41,0.18c-0.32,0.1-0.66,0.12-0.77,0.12c-0.24,0-0.39-0.12-0.48-0.3
			c-0.04-0.08-0.06-0.16-0.07-0.26c0-0.09,0.01-0.17,0.04-0.25c0.06-0.2,0.21-0.38,0.44-0.4h0.01l0,0c0.12-0.03,0.72-0.16,1.13,0.23
			c0.01-0.17-0.03-0.34-0.08-0.48c-0.11,0.05-0.24,0.09-0.37,0.11c-0.32,0.05-0.67,0.04-0.81-0.01l0,0
			c-0.17-0.05-0.3-0.14-0.37-0.26c-0.07-0.1-0.09-0.2-0.09-0.32c0-0.1,0.03-0.2,0.08-0.29c0.07-0.12,0.17-0.2,0.31-0.24h0.01
			l0.01-0.01c0.01,0,0.02,0,0.03,0l0,0C70.1,39.46,70.7,39.34,71.19,39.89L71.19,39.89z M70.96,38.88
			c-0.39-0.44-0.79-0.34-0.95-0.29l0,0l-0.05,0.01c-0.03,0.01-0.05,0.02-0.06,0.03c-0.01,0.01-0.01,0.02-0.01,0.03
			c0,0.02,0,0.05,0.01,0.08c0.01,0.07,0.05,0.13,0.1,0.17L70,38.92c0.08,0.07,0.24,0.1,0.41,0.1c0.12,0,0.25-0.02,0.37-0.05
			C70.85,38.94,70.92,38.92,70.96,38.88L70.96,38.88z M71.41,38.84L71.41,38.84l0.01,0.02C71.41,38.84,71.41,38.8,71.41,38.84
			L71.41,38.84z M70.98,41.39c-0.26-0.35-0.76-0.24-0.85-0.22l0,0h-0.02l-0.01,0.01c-0.06,0-0.11,0.06-0.12,0.12
			c-0.01,0.03-0.02,0.08-0.02,0.11c0.01,0.04,0.01,0.08,0.03,0.1c0.02,0.04,0.06,0.07,0.12,0.07c0.1,0,0.38-0.02,0.65-0.1
			C70.84,41.45,70.92,41.43,70.98,41.39L70.98,41.39z M70.9,40.17c-0.36-0.38-0.77-0.3-0.9-0.27l0,0l-0.04,0.01
			c-0.02,0.01-0.04,0.03-0.05,0.05c-0.02,0.03-0.03,0.07-0.03,0.1c0,0.04,0.01,0.07,0.02,0.1c0.03,0.03,0.07,0.07,0.14,0.09l0,0
			c0.09,0.03,0.36,0.04,0.63-0.01C70.75,40.22,70.83,40.2,70.9,40.17z"/>
		<path class="st1" d="M76.6,45.85c-0.98,1.08-1.96,2.16-2.93,3.26l0.3,0.27c0.97-1.1,1.95-2.17,2.93-3.26l0.31,0.28l0.21,0.19
			l0.12-0.27l0.63-1.62l0.2-0.51l-0.48,0.25l-1.55,0.8l-0.26,0.13l0.22,0.19L76.6,45.85L76.6,45.85z M77.02,45.68l-0.23-0.21
			l0.8-0.41l-0.33,0.84L77.02,45.68z"/>
		<path class="st1" d="M64.61,59.17c0.6-0.66,1.19-1.33,1.8-1.99c0.6-0.67,1.2-1.34,1.8-2l0.3,0.27c-0.6,0.66-1.19,1.33-1.8,2
			c-0.6,0.66-1.2,1.34-1.8,1.99L64.61,59.17z"/>
		<polygon class="st1" points="71,34.37 71.58,32.13 71.98,32.24 71.37,34.48 		"/>
		<polygon class="st1" points="71,34.48 70.4,32.24 70.79,32.13 71.39,34.37 		"/>
		<path class="st1" d="M62.29,52.25c0-0.38,0.06-0.7,0.17-0.96c0.08-0.19,0.2-0.36,0.35-0.51c0.15-0.15,0.31-0.26,0.48-0.34
			c0.23-0.1,0.5-0.15,0.8-0.15c0.55,0,0.99,0.17,1.32,0.51c0.33,0.34,0.49,0.82,0.49,1.42c0,0.6-0.16,1.07-0.49,1.41
			c-0.33,0.34-0.76,0.51-1.31,0.51c-0.55,0-1-0.17-1.32-0.51C62.45,53.31,62.29,52.84,62.29,52.25L62.29,52.25z M63.07,52.22
			c0,0.42,0.1,0.74,0.29,0.96c0.19,0.22,0.44,0.33,0.74,0.33c0.3,0,0.55-0.11,0.74-0.32c0.19-0.22,0.29-0.54,0.29-0.97
			c0-0.43-0.09-0.75-0.28-0.96c-0.19-0.21-0.44-0.32-0.75-0.32c-0.31,0-0.56,0.11-0.75,0.32C63.16,51.47,63.07,51.79,63.07,52.22
			L63.07,52.22z M66.81,54.09v-3.72h1.58c0.4,0,0.69,0.03,0.87,0.1c0.18,0.07,0.33,0.19,0.43,0.36c0.11,0.17,0.16,0.37,0.16,0.59
			c0,0.28-0.08,0.51-0.25,0.69c-0.16,0.18-0.41,0.3-0.73,0.34c0.16,0.09,0.3,0.2,0.4,0.31c0.11,0.11,0.25,0.32,0.43,0.61l0.45,0.73
			h-0.9l-0.54-0.81c-0.19-0.29-0.33-0.47-0.4-0.55c-0.07-0.07-0.15-0.13-0.23-0.15c-0.08-0.03-0.21-0.04-0.38-0.04h-0.15v1.56H66.81
			L66.81,54.09z M67.56,51.94h0.56c0.36,0,0.59-0.02,0.68-0.05c0.09-0.03,0.16-0.08,0.21-0.16c0.05-0.07,0.08-0.17,0.08-0.28
			c0-0.13-0.03-0.23-0.1-0.3c-0.07-0.08-0.16-0.13-0.28-0.15c-0.06-0.01-0.24-0.01-0.55-0.01h-0.59V51.94L67.56,51.94z M74.24,54.09
			h-0.81l-0.32-0.85h-1.49l-0.31,0.85h-0.8l1.45-3.72h0.8L74.24,54.09L74.24,54.09z M72.86,52.61l-0.52-1.38l-0.5,1.38H72.86
			L72.86,52.61z M74.96,54.09v-3.72h1.58c0.4,0,0.69,0.03,0.87,0.1c0.18,0.07,0.33,0.19,0.43,0.36c0.11,0.17,0.16,0.37,0.16,0.59
			c0,0.28-0.08,0.51-0.25,0.69c-0.16,0.18-0.41,0.3-0.73,0.34c0.16,0.09,0.3,0.2,0.4,0.31c0.11,0.11,0.25,0.32,0.43,0.61l0.45,0.73
			h-0.9l-0.54-0.81c-0.19-0.29-0.33-0.47-0.4-0.55c-0.07-0.07-0.15-0.13-0.23-0.15c-0.08-0.03-0.21-0.04-0.38-0.04h-0.15v1.56H74.96
			L74.96,54.09z M75.71,51.94h0.56c0.36,0,0.59-0.02,0.68-0.05c0.09-0.03,0.16-0.08,0.21-0.16c0.05-0.07,0.08-0.17,0.08-0.28
			c0-0.13-0.03-0.23-0.1-0.3c-0.07-0.08-0.16-0.13-0.28-0.15c-0.06-0.01-0.24-0.01-0.55-0.01h-0.59V51.94L75.71,51.94z M79.01,54.09
			v-3.72h0.75v3.72H79.01z"/>
	</g>
	<path class="st2" d="M43.36,78.83l4.83-4.55l0.92,0.98l-4.83,4.55L43.36,78.83L43.36,78.83z M46.28,81.75l1.01,0.72l2.54-3.55
		l-0.35,5.12l1.09,0.78l3.86-5.4l-1.01-0.72l-2.59,3.62l0.36-5.21l-1.06-0.76L46.28,81.75L46.28,81.75z M55.79,80.25l2.23,1
		c0.5,0.22,0.87,0.43,1.1,0.63c0.31,0.26,0.53,0.58,0.66,0.97c0.14,0.38,0.18,0.79,0.14,1.24c-0.04,0.45-0.19,0.95-0.44,1.52
		c-0.22,0.5-0.48,0.9-0.76,1.21c-0.35,0.37-0.72,0.64-1.13,0.78c-0.3,0.11-0.66,0.15-1.07,0.1c-0.31-0.03-0.69-0.15-1.14-0.35
		l-2.3-1.03L55.79,80.25L55.79,80.25z M56.56,81.83l-1.79,4.02l0.91,0.41c0.34,0.15,0.59,0.24,0.76,0.27
		c0.22,0.04,0.42,0.03,0.61-0.03c0.18-0.06,0.38-0.21,0.58-0.44c0.2-0.23,0.41-0.59,0.62-1.06c0.21-0.47,0.33-0.85,0.36-1.13
		c0.03-0.29,0-0.53-0.08-0.74c-0.09-0.21-0.23-0.39-0.44-0.54c-0.15-0.11-0.48-0.28-0.98-0.5L56.56,81.83L56.56,81.83z M61.01,86.16
		c0.13-0.67,0.33-1.21,0.61-1.62c0.21-0.31,0.47-0.57,0.78-0.78c0.31-0.22,0.62-0.36,0.95-0.43c0.44-0.1,0.92-0.09,1.46,0.01
		c0.96,0.18,1.68,0.62,2.14,1.33c0.46,0.71,0.6,1.59,0.4,2.66c-0.2,1.06-0.64,1.83-1.33,2.32c-0.69,0.49-1.51,0.64-2.47,0.46
		c-0.97-0.18-1.69-0.62-2.15-1.33C60.94,88.07,60.81,87.2,61.01,86.16L61.01,86.16z M62.37,86.37c-0.14,0.74-0.07,1.33,0.2,1.78
		c0.27,0.45,0.67,0.72,1.19,0.82c0.53,0.1,0.99-0.01,1.4-0.32c0.41-0.32,0.68-0.85,0.83-1.61c0.14-0.75,0.08-1.34-0.18-1.77
		c-0.26-0.43-0.66-0.7-1.21-0.8c-0.54-0.1-1.02,0-1.42,0.31C62.79,85.09,62.51,85.62,62.37,86.37L62.37,86.37z M69.28,90.82
		l-0.23-6.64l1.3-0.04l2.88,4.35l-0.15-4.45L74.33,84l0.23,6.64l-1.34,0.05l-2.84-4.27l0.15,4.36L69.28,90.82L69.28,90.82z
		 M77.46,90.29l-1.49-6.47l4.79-1.11l0.25,1.09l-3.48,0.8l0.33,1.44l3.24-0.75l0.25,1.09l-3.24,0.75l0.4,1.75l3.61-0.83l0.25,1.09
		L77.46,90.29L77.46,90.29z M83.66,86.48l1.14-0.66c0.25,0.37,0.53,0.59,0.83,0.68c0.3,0.09,0.64,0.05,1.01-0.12
		c0.39-0.18,0.65-0.39,0.77-0.65c0.12-0.26,0.14-0.5,0.03-0.72c-0.07-0.14-0.16-0.25-0.29-0.31c-0.13-0.06-0.31-0.08-0.56-0.06
		c-0.16,0.01-0.53,0.07-1.09,0.18c-0.73,0.13-1.27,0.14-1.65,0.02c-0.52-0.17-0.89-0.49-1.11-0.97c-0.14-0.31-0.18-0.64-0.13-0.99
		c0.05-0.35,0.21-0.67,0.48-0.95c0.26-0.29,0.63-0.54,1.09-0.75c0.76-0.34,1.4-0.43,1.94-0.27c0.54,0.16,0.94,0.52,1.21,1.07
		l-1.21,0.6c-0.19-0.29-0.41-0.46-0.64-0.52c-0.23-0.06-0.52-0.01-0.86,0.14c-0.35,0.16-0.6,0.36-0.73,0.59
		c-0.09,0.15-0.09,0.31-0.02,0.46c0.06,0.14,0.18,0.24,0.35,0.29c0.21,0.06,0.65,0.03,1.3-0.1c0.66-0.13,1.16-0.18,1.51-0.16
		c0.35,0.02,0.67,0.13,0.95,0.31c0.28,0.19,0.5,0.47,0.68,0.85c0.16,0.35,0.21,0.72,0.15,1.11c-0.06,0.39-0.23,0.74-0.51,1.04
		c-0.29,0.31-0.69,0.58-1.22,0.82c-0.76,0.35-1.43,0.44-2,0.27C84.52,87.52,84.05,87.11,83.66,86.48L83.66,86.48z M91.67,84.84
		l1.14-0.72l-3.56-5.61l-1.14,0.72L91.67,84.84L91.67,84.84z M99.55,78.55l-1.09,0.95l-1.43-0.76l-2.01,1.75l0.58,1.5l-1.07,0.94
		l-2.42-6.7l1.07-0.93L99.55,78.55L99.55,78.55z M95.97,78.18l-2.31-1.25l0.94,2.44L95.97,78.18L95.97,78.18z M101.37,75.06
		l-0.25-2.53l2.03,1.52c0.08,0.05,0.17,0.05,0.27-0.01c0.09-0.06,0.21-0.21,0.35-0.47c0.15-0.26,0.23-0.44,0.23-0.55
		c0.01-0.11-0.04-0.18-0.13-0.22l-2.31-1.06l2.32-1c0.1-0.03,0.15-0.11,0.14-0.22c-0.01-0.11-0.08-0.3-0.23-0.56
		c-0.14-0.26-0.27-0.42-0.36-0.48c-0.1-0.06-0.18-0.06-0.27,0.01l-2.06,1.47l0.29-2.51c0.01-0.1-0.03-0.17-0.13-0.23
		c-0.1-0.06-0.29-0.09-0.58-0.09c-0.29,0-0.49,0.02-0.59,0.07c-0.1,0.05-0.15,0.13-0.14,0.23l0.26,2.53l-2.04-1.52
		c-0.08-0.06-0.17-0.06-0.26,0c-0.1,0.06-0.22,0.21-0.36,0.47c-0.15,0.26-0.23,0.44-0.23,0.55c0,0.11,0.04,0.19,0.13,0.23l2.31,1.04
		l-2.33,1.01c-0.09,0.03-0.14,0.1-0.13,0.22c0.01,0.11,0.08,0.3,0.23,0.56c0.15,0.26,0.27,0.42,0.36,0.48c0.1,0.06,0.18,0.06,0.26,0
		l2.07-1.48l-0.29,2.53c-0.01,0.1,0.03,0.17,0.13,0.22c0.1,0.05,0.29,0.08,0.59,0.08c0.29,0.01,0.49-0.02,0.59-0.07
		C101.33,75.23,101.37,75.16,101.37,75.06L101.37,75.06z M42.38,75.06l-0.25-2.53l2.03,1.52c0.08,0.05,0.17,0.05,0.27-0.01
		c0.09-0.06,0.21-0.21,0.35-0.47c0.15-0.26,0.23-0.44,0.23-0.55c0.01-0.11-0.04-0.18-0.13-0.22l-2.31-1.06l2.32-1
		c0.1-0.03,0.15-0.11,0.14-0.22c-0.01-0.11-0.08-0.3-0.23-0.56c-0.14-0.26-0.27-0.42-0.36-0.48c-0.1-0.06-0.18-0.06-0.26,0.01
		l-2.06,1.47l0.29-2.51c0.01-0.1-0.03-0.17-0.13-0.23c-0.1-0.06-0.29-0.09-0.58-0.09c-0.29,0-0.49,0.02-0.59,0.07
		c-0.1,0.05-0.15,0.13-0.14,0.23l0.26,2.53l-2.04-1.52c-0.08-0.06-0.17-0.06-0.26,0c-0.1,0.06-0.22,0.21-0.36,0.47
		c-0.15,0.26-0.23,0.44-0.23,0.55c0,0.11,0.04,0.19,0.13,0.23l2.31,1.04l-2.33,1.01c-0.09,0.03-0.14,0.1-0.13,0.22
		c0.01,0.11,0.08,0.3,0.23,0.56c0.15,0.26,0.27,0.42,0.36,0.48c0.1,0.06,0.18,0.06,0.26,0l2.07-1.48l-0.29,2.53
		c-0.01,0.1,0.03,0.17,0.13,0.22c0.1,0.05,0.29,0.08,0.59,0.08c0.29,0.01,0.49-0.02,0.59-0.07C42.34,75.23,42.39,75.16,42.38,75.06
		L42.38,75.06z M39.05,66.3c-0.63,0.21-1.19,0.3-1.69,0.25c-0.36-0.03-0.71-0.13-1.05-0.29c-0.33-0.16-0.61-0.36-0.83-0.61
		c-0.29-0.33-0.53-0.75-0.7-1.25c-0.31-0.91-0.27-1.74,0.11-2.48c0.38-0.74,1.08-1.28,2.09-1.62c1-0.34,1.88-0.33,2.63,0.02
		c0.75,0.35,1.28,0.99,1.59,1.9c0.31,0.92,0.28,1.75-0.1,2.49C40.73,65.43,40.04,65.97,39.05,66.3L39.05,66.3z M38.57,65.03
		c0.7-0.24,1.18-0.58,1.43-1.03c0.25-0.45,0.29-0.92,0.13-1.42c-0.17-0.5-0.49-0.85-0.96-1.05c-0.47-0.2-1.06-0.18-1.78,0.07
		c-0.71,0.24-1.19,0.58-1.43,1.01c-0.24,0.43-0.28,0.9-0.1,1.42c0.17,0.52,0.49,0.87,0.95,1.07C37.27,65.29,37.86,65.27,38.57,65.03
		L38.57,65.03z M39.99,58.2l-6.49,0.82l-0.35-2.76c-0.09-0.69-0.09-1.21-0.02-1.53c0.08-0.33,0.25-0.61,0.53-0.83
		c0.28-0.23,0.6-0.37,0.99-0.41c0.49-0.06,0.91,0.03,1.26,0.27c0.35,0.25,0.61,0.65,0.76,1.2c0.13-0.3,0.28-0.56,0.46-0.77
		c0.17-0.21,0.5-0.5,0.96-0.88l1.17-0.95l0.2,1.57l-1.3,1.12c-0.46,0.4-0.75,0.67-0.86,0.81c-0.11,0.14-0.19,0.28-0.22,0.43
		c-0.03,0.15-0.03,0.37,0.01,0.67l0.03,0.27l2.71-0.34L39.99,58.2L39.99,58.2z M36.08,57.36l-0.12-0.97
		c-0.08-0.63-0.16-1.02-0.23-1.17c-0.07-0.15-0.18-0.26-0.32-0.33c-0.14-0.07-0.31-0.1-0.51-0.07c-0.22,0.03-0.39,0.11-0.51,0.24
		c-0.12,0.13-0.18,0.31-0.19,0.52c0,0.11,0.03,0.43,0.1,0.96l0.13,1.02L36.08,57.36L36.08,57.36z M37.32,48.29l-1.1-0.14l0.36-2.82
		l2.59,0.33c0.23,0.31,0.42,0.73,0.55,1.28c0.14,0.55,0.17,1.09,0.1,1.62c-0.09,0.68-0.3,1.25-0.65,1.72
		c-0.35,0.47-0.81,0.79-1.37,0.98c-0.56,0.19-1.16,0.24-1.78,0.16c-0.68-0.09-1.26-0.3-1.75-0.65c-0.49-0.35-0.84-0.82-1.05-1.4
		c-0.16-0.44-0.2-0.97-0.13-1.59c0.1-0.81,0.35-1.41,0.75-1.82c0.4-0.41,0.9-0.64,1.52-0.69l0.08,1.34
		c-0.33,0.05-0.6,0.19-0.82,0.42c-0.22,0.23-0.35,0.53-0.4,0.91c-0.07,0.57,0.05,1.05,0.37,1.43c0.32,0.38,0.84,0.62,1.55,0.71
		c0.77,0.1,1.37,0,1.8-0.29c0.43-0.29,0.68-0.72,0.75-1.27c0.03-0.27,0.02-0.56-0.06-0.84c-0.07-0.29-0.17-0.54-0.3-0.76l-0.82-0.1
		L37.32,48.29L37.32,48.29z M42.21,38.98l-0.46,1.35l-1.59,0.06l-0.84,2.49l1.24,0.99l-0.45,1.33l-5.38-4.5l0.45-1.33L42.21,38.98
		L42.21,38.98z M38.98,40.45l-2.59,0.08l2.01,1.61L38.98,40.45L38.98,40.45z M42.61,38.37l-5.67-3.26L37.58,34l5.14-0.15l-3.8-2.19
		l0.61-1.06l5.67,3.26l-0.66,1.15l-5.05,0.15l3.73,2.14L42.61,38.37L42.61,38.37z M46.13,32.86l0.82-1.04l-5.14-4.04l-0.82,1.04
		L46.13,32.86L46.13,32.86z M46.03,29.53l0.84-0.98c0.35,0.26,0.68,0.38,0.99,0.36c0.31-0.02,0.61-0.16,0.9-0.44
		c0.31-0.29,0.48-0.58,0.51-0.86c0.03-0.28-0.04-0.5-0.2-0.68c-0.11-0.11-0.23-0.18-0.37-0.19c-0.14-0.02-0.32,0.02-0.54,0.12
		c-0.15,0.07-0.47,0.24-0.96,0.52c-0.63,0.36-1.14,0.54-1.52,0.55c-0.54,0.01-0.99-0.17-1.35-0.54c-0.23-0.24-0.38-0.53-0.44-0.87
		c-0.06-0.34-0.02-0.69,0.13-1.04c0.15-0.35,0.41-0.7,0.77-1.05c0.59-0.56,1.16-0.86,1.71-0.88c0.55-0.02,1.04,0.18,1.48,0.6
		l-0.93,0.95c-0.27-0.21-0.53-0.3-0.76-0.28c-0.24,0.02-0.49,0.16-0.75,0.41c-0.28,0.26-0.44,0.53-0.48,0.79
		c-0.03,0.17,0.01,0.32,0.13,0.44c0.11,0.11,0.25,0.16,0.42,0.15c0.22-0.01,0.61-0.18,1.18-0.52c0.57-0.33,1.02-0.55,1.35-0.64
		c0.34-0.09,0.66-0.1,0.98-0.02c0.32,0.08,0.62,0.28,0.91,0.57c0.26,0.27,0.43,0.6,0.5,0.98c0.07,0.38,0.03,0.76-0.14,1.14
		c-0.17,0.38-0.45,0.76-0.87,1.16c-0.6,0.57-1.19,0.87-1.77,0.9C47.17,30.22,46.6,30,46.03,29.53L46.03,29.53z M57.23,23.56
		l-5.74-4.09l-1.18,0.76l1.39,6.88l1.18-0.76l-0.35-1.55l2.21-1.42l1.28,0.95L57.23,23.56L57.23,23.56z M53.79,22.69l-1.51,0.97
		l-0.56-2.52L53.79,22.69L53.79,22.69z M56.86,21.56l1.15-0.59c0.23,0.37,0.49,0.61,0.78,0.71c0.29,0.1,0.63,0.08,1-0.07
		c0.39-0.16,0.66-0.36,0.79-0.6c0.13-0.25,0.16-0.48,0.07-0.7c-0.06-0.14-0.15-0.25-0.27-0.32c-0.12-0.07-0.31-0.1-0.54-0.09
		c-0.16,0.01-0.52,0.05-1.08,0.12c-0.72,0.09-1.26,0.07-1.62-0.06c-0.5-0.19-0.85-0.52-1.04-1.01c-0.12-0.31-0.15-0.64-0.08-0.98
		c0.07-0.34,0.24-0.64,0.51-0.92c0.27-0.27,0.64-0.5,1.11-0.68c0.76-0.3,1.4-0.36,1.92-0.17c0.52,0.19,0.9,0.56,1.14,1.12
		l-1.22,0.53c-0.18-0.29-0.38-0.47-0.6-0.54c-0.23-0.07-0.51-0.04-0.85,0.1c-0.35,0.14-0.6,0.32-0.74,0.55
		c-0.09,0.15-0.11,0.3-0.04,0.46c0.06,0.14,0.17,0.24,0.33,0.3c0.21,0.07,0.64,0.06,1.29-0.03c0.65-0.1,1.15-0.12,1.49-0.08
		c0.35,0.04,0.65,0.16,0.92,0.35c0.26,0.2,0.47,0.49,0.62,0.87c0.14,0.35,0.17,0.71,0.1,1.09c-0.07,0.38-0.26,0.72-0.55,1
		c-0.3,0.29-0.71,0.54-1.24,0.74c-0.77,0.3-1.43,0.36-1.98,0.17C57.66,22.63,57.21,22.21,56.86,21.56L56.86,21.56z M63.68,21.47
		l-1.47-6.37l1.29-0.3l1.47,6.37L63.68,21.47L63.68,21.47z M74.29,20.49l-1.43,0.04l-0.6-1.47l-2.62,0.07l-0.51,1.5l-1.4,0.04
		l2.37-6.6l1.4-0.04L74.29,20.49L74.29,20.49z M71.8,17.96l-0.97-2.4l-0.82,2.44L71.8,17.96L71.8,17.96z M75,20.62l1.47-6.37
		l1.93,0.45l0.14,4.61l2.13-4.09l1.94,0.45l-1.47,6.37l-1.19-0.28l1.15-5.02l-2.42,4.73l-1.24-0.29l-0.09-5.31l-1.16,5.02L75,20.62
		L75,20.62z M87.75,24.98l0.31-7.04l-1.28-0.58l-5.01,4.91l1.28,0.58l1.11-1.13l2.39,1.08l-0.1,1.59L87.75,24.98L87.75,24.98z
		 M86.62,21.62l-1.63-0.74l1.8-1.84L86.62,21.62L86.62,21.62z M88.91,25.99l3.15-4.43l-1.58-1.12l0.64-0.9l4.23,3.01l-0.64,0.9
		l-1.57-1.12l-3.15,4.43L88.91,25.99L88.91,25.99z M92.14,28.47l0.96,0.91l4.51-4.73l-0.96-0.91L92.14,28.47L92.14,28.47z
		 M94.11,30.17l0.82,1.04l2.15-1.69l0.17,0.21c0.19,0.24,0.31,0.43,0.36,0.57c0.05,0.14,0.06,0.3,0.03,0.48
		c-0.03,0.18-0.13,0.56-0.32,1.14l-0.54,1.63l0.98,1.24l0.51-1.42c0.21-0.56,0.33-0.98,0.37-1.25c0.04-0.27,0.04-0.57,0-0.89
		c0.42,0.4,0.84,0.61,1.27,0.64c0.43,0.03,0.84-0.11,1.22-0.41c0.3-0.24,0.51-0.53,0.63-0.86c0.12-0.34,0.13-0.66,0.02-0.99
		c-0.1-0.32-0.37-0.76-0.8-1.31l-1.72-2.19L94.11,30.17L94.11,30.17z M97.9,28.88l1.31-1.03l0.64,0.81
		c0.33,0.42,0.52,0.68,0.58,0.77c0.1,0.19,0.14,0.37,0.11,0.55c-0.04,0.18-0.14,0.33-0.31,0.47c-0.15,0.12-0.31,0.19-0.47,0.2
		c-0.16,0.01-0.31-0.03-0.45-0.12c-0.14-0.09-0.4-0.38-0.8-0.88L97.9,28.88L97.9,28.88z M99.46,37.59l6.09-2.4l1.02,2.59
		c0.26,0.65,0.39,1.15,0.39,1.48c0.01,0.34-0.09,0.65-0.3,0.94c-0.21,0.29-0.49,0.5-0.85,0.64c-0.46,0.18-0.89,0.2-1.29,0.05
		c-0.4-0.15-0.75-0.48-1.04-0.98c-0.05,0.33-0.13,0.61-0.25,0.86c-0.12,0.25-0.36,0.61-0.71,1.09l-0.89,1.21l-0.58-1.47l0.98-1.41
		c0.35-0.5,0.56-0.84,0.64-1c0.08-0.16,0.11-0.32,0.11-0.47c-0.01-0.15-0.07-0.37-0.18-0.65l-0.1-0.25l-2.54,1L99.46,37.59
		L99.46,37.59z M103.46,37.44l0.36,0.91c0.23,0.59,0.4,0.95,0.51,1.07c0.11,0.13,0.24,0.21,0.39,0.24c0.15,0.04,0.32,0.02,0.51-0.06
		c0.21-0.08,0.35-0.2,0.43-0.36c0.08-0.16,0.1-0.34,0.06-0.56c-0.03-0.11-0.14-0.41-0.33-0.91l-0.38-0.96L103.46,37.44L103.46,37.44
		z M102.89,49.56l-0.25-1.4l1.37-0.82l-0.46-2.58l-1.56-0.27l-0.25-1.38l6.89,1.35l0.25,1.38L102.89,49.56L102.89,49.56z
		 M105.02,46.72l2.22-1.32l-2.54-0.44L105.02,46.72L105.02,46.72z M109.47,50.45l-0.06,2.41c-0.01,0.54-0.07,0.96-0.16,1.24
		c-0.12,0.38-0.33,0.7-0.63,0.97c-0.29,0.27-0.65,0.46-1.08,0.6c-0.42,0.13-0.94,0.19-1.55,0.17c-0.54-0.01-1-0.09-1.39-0.24
		c-0.47-0.17-0.85-0.42-1.14-0.73c-0.22-0.23-0.38-0.55-0.5-0.94c-0.09-0.29-0.12-0.68-0.11-1.17l0.06-2.48L109.47,50.45
		L109.47,50.45z M108.33,51.74L104,51.63l-0.02,0.98c-0.01,0.37,0.01,0.63,0.04,0.8c0.05,0.22,0.13,0.39,0.26,0.54
		c0.12,0.14,0.33,0.26,0.62,0.36c0.29,0.1,0.69,0.15,1.19,0.16c0.51,0.01,0.89-0.02,1.17-0.1c0.27-0.08,0.49-0.2,0.64-0.36
		c0.15-0.16,0.26-0.36,0.32-0.6c0.05-0.18,0.08-0.54,0.09-1.08L108.33,51.74L108.33,51.74z M102.56,56.82l6.44,1.15l-0.23,1.3
		l-6.44-1.15L102.56,56.82L102.56,56.82z M105.37,60.18c0.63,0.21,1.13,0.49,1.5,0.82c0.27,0.25,0.49,0.54,0.66,0.86
		c0.17,0.33,0.26,0.66,0.29,0.99c0.03,0.44-0.04,0.92-0.21,1.42c-0.31,0.91-0.84,1.55-1.59,1.91c-0.75,0.36-1.64,0.36-2.65,0.02
		c-1-0.34-1.7-0.88-2.08-1.61c-0.38-0.74-0.42-1.56-0.11-2.47c0.31-0.92,0.84-1.56,1.59-1.91
		C103.52,59.86,104.38,59.85,105.37,60.18L105.37,60.18z M104.98,61.48c-0.7-0.24-1.29-0.25-1.76-0.05
		c-0.47,0.2-0.79,0.55-0.96,1.05c-0.17,0.5-0.13,0.97,0.12,1.41c0.25,0.44,0.74,0.78,1.46,1.03c0.71,0.24,1.29,0.26,1.75,0.07
		c0.46-0.19,0.77-0.55,0.95-1.07c0.17-0.52,0.14-0.99-0.11-1.43C106.17,62.07,105.69,61.73,104.98,61.48z"/>
</g>
</svg>
